<svg width="300" height="180" viewBox="0 0 300 180" fill="none" xmlns="http://www.w3.org/2000/svg">
<path d="M239.433 0.0194434C240.206 1.29498 240.933 2.59635 241.765 3.83304C246.56 10.9748 251.394 18.0971 256.195 25.2388C257.944 27.8417 259.163 30.6777 260.073 33.682C261.226 37.4763 262.549 41.2122 263.748 44.9935C264.737 48.1079 265.647 51.2482 266.623 54.369C267.213 56.2532 267.868 58.1179 268.49 59.9827C267.842 60.6496 267.108 60.3777 266.427 60.4166C264.691 60.5202 262.949 60.6237 261.219 60.792C260.656 60.8503 260.119 61.1223 259.359 61.3619C259.051 60.9475 258.586 60.4424 258.252 59.8597C254.178 52.7309 250.077 45.6087 246.101 38.4281C245.106 36.6281 244.438 34.6338 243.73 32.6849C242.846 30.2309 242.04 27.7446 241.267 25.2518C240.697 23.4194 240.252 21.5482 239.715 19.7028C239.165 17.8122 238.536 15.941 237.999 14.0374C237.449 12.082 236.97 10.1137 236.459 8.14537C236.256 7.3684 235.949 6.59783 235.903 5.81438C235.791 3.9302 236.525 2.27905 237.547 0.725098C237.684 0.517903 237.711 0.246043 237.789 0C238.339 0.0194245 238.89 0.0194434 239.433 0.0194434ZM255.763 31.3445C256.785 29.7712 256.785 29.4216 255.763 27.8871C252.101 22.3705 248.44 16.854 244.745 11.3569C243.134 8.96118 241.477 6.59788 239.8 4.24752C239.211 3.42522 238.745 3.52231 238.32 4.38347C237.449 6.11872 237.711 7.73742 238.811 9.2331C244.084 16.3748 249.376 23.4971 254.689 30.6065C254.938 30.9367 255.403 31.105 255.763 31.3445Z" fill="#F3F3F3"/>
<path d="M163.824 91.2302C162.652 91.0554 161.59 90.8288 160.523 90.7446C156.724 90.4467 152.918 90.2072 149.119 89.9158C146.676 89.728 144.239 89.5274 141.809 89.2555C140.682 89.1325 139.582 88.8345 138.54 88.6273C138.442 88.4266 138.344 88.3166 138.363 88.2389C138.894 86.1864 138.966 84.0367 139.949 82.0749C140.833 80.3202 142.241 79.0964 143.774 78.0151C149.82 73.7547 156.029 69.7339 162.724 66.5288C165.933 64.9943 169.267 63.6928 172.588 62.4043C173.735 61.9575 175.005 61.8086 176.237 61.6338C178.883 61.2518 181.248 62.2231 183.632 63.1619C186.396 64.2497 189.16 65.344 191.983 66.2764C193.084 66.639 194.361 66.8072 195.501 66.6518C197.918 66.3216 200.302 65.7713 202.68 65.2209C204.789 64.7288 206.859 64.1072 208.948 63.5439C210.881 63.0194 212.82 62.5015 214.745 61.964C216.671 61.4266 218.597 60.8698 220.523 60.3259C222.501 59.7626 224.472 59.1735 226.457 58.6425C228.547 58.0857 230.656 57.5741 232.759 57.0561C234.18 56.7064 235.601 56.331 237.036 56.0721C240.56 55.444 244.051 54.5698 247.7 55.0231C250.503 55.3662 252.645 56.7388 254.066 59.0115C255.337 61.0511 256.32 63.2784 257.315 65.4733C259.647 70.6532 261.966 75.8461 264.18 81.0777C265.267 83.6418 266.427 86.2318 267.01 88.9318C267.907 93.0756 267.141 96.8763 263.643 99.9001C260.492 102.626 257.034 104.879 253.392 106.841C248.577 109.437 243.704 111.943 238.759 114.287C234.101 116.495 229.326 118.457 224.59 120.49C220.202 122.374 215.813 124.265 211.379 126.045C208.235 127.308 205.025 128.389 201.842 129.548C199.064 130.558 196.293 131.594 193.49 132.546C190.588 133.537 187.641 134.417 184.732 135.382C182.433 136.14 180.167 136.988 177.861 137.732C175.503 138.496 173.112 139.157 170.754 139.908C168.396 140.653 166.064 141.468 163.706 142.226C161.401 142.97 159.082 143.67 156.77 144.401C154.307 145.178 151.85 145.975 149.381 146.745C147.684 147.276 145.981 147.768 144.285 148.293C142.536 148.837 140.794 149.394 139.045 149.944C136.687 150.682 134.322 151.427 131.957 152.158C130.156 152.715 128.355 153.266 126.553 153.822C124.857 154.347 123.167 154.884 121.464 155.396C119.761 155.907 118.045 156.386 116.342 156.904C113.715 157.701 111.095 158.517 108.481 159.339C106.071 160.103 103.673 160.899 101.263 161.663C99.6189 162.181 97.9616 162.654 96.311 163.166C94.4573 163.735 92.6167 164.318 90.763 164.888C89.1189 165.393 87.4616 165.891 85.8175 166.396C83.9704 166.966 82.1232 167.555 80.2761 168.125C78.5796 168.65 76.8699 169.142 75.1669 169.666C73.418 170.204 71.6822 170.773 69.9398 171.317C68.2433 171.848 66.5403 172.36 64.8438 172.884C63.1472 173.402 61.4376 173.894 59.7477 174.438C57.3896 175.196 55.0511 175.992 52.6996 176.756C50.3481 177.527 47.99 178.284 45.6319 179.035C45.2193 179.165 44.8066 179.307 44.3808 179.359C41.7214 179.676 41.7018 179.644 40.49 177.158C40.097 176.355 39.6188 175.591 39.1603 174.768C38.6887 174.872 38.3219 174.95 37.9616 175.027C37.0184 175.235 36.0883 175.539 35.1319 175.636C34.1821 175.733 33.3568 175.345 32.7411 174.555C31.883 173.461 30.9791 172.399 29.9835 171.194C30.1734 170.981 30.3503 170.625 30.6319 170.495C32.0533 169.841 33.5009 169.232 34.9485 168.643C35.3481 168.481 35.787 168.371 36.2127 168.332C38.3284 168.145 40.4573 168.06 42.5665 167.808C45.0424 167.51 47.5119 167.102 49.9747 166.707C51.311 166.494 52.6407 166.222 53.9638 165.924C57.6647 165.089 61.3656 164.26 65.0468 163.373C68.728 162.486 72.4158 161.586 76.0708 160.576C79.4049 159.656 82.6996 158.575 86.0141 157.578C89.8459 156.425 93.704 155.337 97.5162 154.14C101.178 152.987 104.807 151.718 108.449 150.52C111.324 149.575 114.219 148.675 117.088 147.717C119.911 146.778 122.715 145.8 125.525 144.829C128.335 143.858 131.152 142.893 133.955 141.902C137.368 140.698 140.774 139.468 144.187 138.25C147.442 137.091 150.711 135.939 153.959 134.767C157.163 133.614 160.366 132.449 163.556 131.264C166.745 130.079 169.929 128.875 173.119 127.677C176.813 126.291 180.508 124.919 184.195 123.514C187.883 122.109 191.558 120.678 195.232 119.253C196.49 118.768 197.748 118.269 199.031 117.77C199.248 117.136 199.143 116.696 198.403 116.605C198.023 116.56 197.643 116.566 197.256 116.566C193.929 116.553 190.588 116.663 187.267 116.488C185.119 116.378 183.396 117.291 181.582 118.101C177.907 119.739 174.245 121.416 170.545 123.002C167.04 124.504 163.51 125.948 159.973 127.36C156.429 128.771 152.852 130.118 149.296 131.497C146.191 132.702 143.099 133.938 139.981 135.11C137.368 136.094 134.728 137.02 132.095 137.959C129.311 138.956 126.534 139.973 123.73 140.911C121.942 141.507 120.036 141.805 118.326 142.556C116.08 143.54 114.475 142.906 112.817 141.358C111.416 140.044 109.713 139.053 108.252 137.791C107.492 137.137 106.752 137.143 105.999 137.448C102.265 138.956 98.5577 140.536 94.8306 142.07C90.7564 143.747 86.669 145.392 82.6013 147.076C79.228 148.468 75.8678 149.911 72.4944 151.297C69.1145 152.689 65.7149 154.03 62.335 155.409C58.3066 157.053 54.2848 158.717 50.263 160.368C49.1167 160.841 47.99 161.346 46.8241 161.767C46.3918 161.922 45.8874 161.884 45.311 161.942C45.1996 161.236 45.0817 160.666 45.0162 160.083C44.8787 158.847 45.252 157.934 46.4769 157.338C48.9005 156.153 51.2717 154.858 53.656 153.596C54.1145 153.356 54.5271 153.039 55.2084 152.592C54.6254 152.359 54.3241 152.165 54.0031 152.126C53.4136 152.055 52.8044 152.035 52.2084 152.061C47.1319 152.294 42.5009 150.824 38.0533 148.558C34.5424 146.765 31.4573 144.35 28.2149 142.155C27.252 141.501 26.132 140.983 25.0119 140.691C23.466 140.284 22.0315 140.899 20.7149 141.714C20.0534 142.122 20.073 142.653 20.4725 143.217C20.6887 143.521 20.9704 143.786 21.2324 144.058C27.1014 150.248 32.9704 156.438 38.8328 162.635C39.2717 163.094 39.6778 163.586 40.2869 164.273C38.8524 164.778 37.621 165.211 36.2782 165.684C35.7149 165.166 35.1319 164.635 34.5555 164.091C27.383 157.358 20.2105 150.617 13.0381 143.89C11.9049 142.828 11.3022 142.776 9.84155 143.463C6.9267 144.835 4.00529 146.189 1.0708 147.529C0.802237 147.652 0.44856 147.594 0.0424464 147.626C0.0424464 145.891 -0.0754591 144.214 0.0817462 142.569C0.19965 141.319 1.15597 140.549 2.28261 139.992C4.90925 138.71 7.52931 137.415 10.1232 136.068C12.0883 135.045 14.0206 133.964 15.9267 132.837C17.2106 132.08 17.2629 131.782 16.7651 129.976C16.1756 130.118 15.5206 130.157 14.9835 130.422C11.859 131.963 8.7673 133.569 5.65595 135.13C5.38739 135.265 5.04681 135.246 4.6276 135.317C4.58175 134.696 4.5621 134.165 4.50314 133.634C4.38524 132.54 4.88304 131.776 5.79352 131.225C9.49439 128.991 13.2018 126.758 17.263 125.229C19.0905 124.543 21.0424 124.2 23.0337 124.453C24.573 124.647 25.9748 125.262 27.2258 126.123C29.9442 127.988 32.6232 129.898 35.2761 131.847C40.4049 135.622 45.3896 139.597 50.99 142.712C53.1778 143.929 55.4507 144.92 57.8546 145.593C59.8001 146.137 61.6145 145.58 63.3896 144.829C72.3961 141.009 81.18 136.748 89.8983 132.326C96.3961 129.03 102.9 125.728 109.379 122.394C110.525 121.804 111.638 121.105 112.647 120.315C113.61 119.558 113.617 118.891 112.916 117.46C103.916 121.487 95.0599 125.838 86.0861 129.93C84.5992 128.376 84.7236 127.185 86.5643 126.117C88.0053 125.275 89.5118 124.543 90.966 123.714C91.6931 123.3 92.3546 122.782 93.1145 122.264C92.2629 120.658 91.038 119.642 89.8197 118.696C89.4005 118.366 88.3853 118.412 87.835 118.671C82.8241 121.027 77.8394 123.449 72.8678 125.883C69.6844 127.444 66.5337 129.056 63.3634 130.63C63.1538 130.733 62.859 130.688 62.3612 130.727C63.0097 127.839 63.5534 125.081 64.2673 122.361C64.6538 120.891 65.8459 119.972 67.1822 119.273C74.2761 115.589 81.3568 111.885 88.4704 108.233C89.4857 107.715 89.9311 107.035 89.8328 105.947C89.7739 105.3 89.787 104.646 89.6822 104.011C89.5381 103.131 89.1974 102.969 88.3393 103.351C85.9813 104.393 83.6429 105.494 81.2652 106.491C79.2542 107.333 79.4639 107.547 77.9246 105.993C74.6887 102.723 71.4791 99.4209 68.2826 96.1122C67.025 94.8108 67.025 94.4482 68.3219 93.205C71.1647 90.4662 74.5053 88.5821 78.311 87.436C81.2586 86.5425 84.2455 86.0116 87.311 86.2705C90.0752 86.5036 92.8197 86.918 95.5774 87.2547C95.8459 87.2871 96.1145 87.3648 96.383 87.3907C98.9835 87.6626 101.584 87.8957 104.178 88.2195C106.497 88.5108 108.802 88.9123 111.114 89.249C112.837 89.4951 114.56 89.728 116.289 89.9417C118.608 90.2331 120.94 90.4727 123.259 90.7835C125.577 91.0878 127.883 91.4504 130.195 91.7871C132.187 92.072 134.178 92.3634 136.169 92.6483C137.459 92.8361 138.75 93.0367 140.04 93.1986C142.359 93.4899 144.691 93.7231 147.003 94.0403C149.158 94.3317 151.293 94.7137 153.442 95.0375C155.322 95.3224 157.208 95.5943 159.088 95.8663C160.431 96.0605 161.774 96.2741 163.123 96.4425C165.39 96.7273 167.662 96.9605 169.922 97.2777C172.071 97.5756 174.213 97.9706 176.361 98.3008C177.973 98.5533 179.584 98.7863 181.202 99C183.416 99.2913 185.63 99.5374 187.837 99.8482C190.045 100.153 192.245 100.515 194.446 100.845C195.147 100.949 195.848 101.04 196.549 101.124C198.678 101.376 199.634 103.06 198.71 104.957C198.337 105.714 197.938 106.459 197.446 107.411C198.468 107.819 199.339 108.201 200.23 108.525C203.021 109.554 205.824 110.545 208.601 111.587C209.197 111.814 209.695 111.865 210.311 111.606C213.442 110.286 216.606 109.029 219.743 107.722C225.789 105.196 231.619 102.244 237.357 99.1166C242.001 96.585 246.553 93.8914 251.145 91.2756C252.455 90.531 252.54 90.5634 253.706 91.4958C254.63 92.2339 255.56 92.972 256.549 93.6195C256.922 93.8656 257.473 93.9821 257.924 93.9368C259.293 93.8138 259.929 92.6159 259.202 91.4763C255.396 85.513 252.612 79.0511 249.71 72.6475C248.152 69.2029 246.92 65.6158 245.545 62.1C244.876 60.3906 243.599 59.5036 241.994 59.5684C240.468 59.6267 238.922 59.4519 237.416 59.6267C235.326 59.8728 233.25 60.2871 231.193 60.7339C229.405 61.1224 227.63 61.6144 225.881 62.1454C223.614 62.8317 221.355 63.5439 219.128 64.3467C216.553 65.2726 214.005 66.2957 211.464 67.3058C208.018 68.672 204.54 69.9669 201.154 71.469C196.641 73.4698 192.167 75.5612 187.745 77.7497C181.162 81.013 174.638 84.3928 168.088 87.7274C167.276 88.1418 166.47 88.582 165.652 88.9835C164.754 89.4432 163.909 89.9676 163.824 91.2302ZM89.2433 90.5505C89.8459 90.803 90.37 91.1201 90.9333 91.2432C93.2652 91.7417 95.6101 92.2015 97.9485 92.6418C100.614 93.1469 103.287 93.6066 105.946 94.1116C107.171 94.3447 108.383 94.6231 109.601 94.8886C111.193 95.2317 112.778 95.5942 114.37 95.905C115.916 96.2093 117.475 96.423 119.014 96.7403C121.667 97.2906 124.3 97.9188 126.959 98.4497C129.619 98.9807 132.291 99.4145 134.957 99.9195C136.235 100.159 137.499 100.463 138.776 100.735C140.368 101.072 141.953 101.428 143.551 101.739C145.097 102.037 146.656 102.257 148.195 102.574C150.848 103.118 153.488 103.753 156.141 104.277C158.8 104.802 161.479 105.222 164.139 105.74C165.678 106.038 167.191 106.478 168.73 106.789C170.27 107.106 171.828 107.333 173.374 107.618C174.763 107.871 176.145 108.123 177.527 108.414C179.066 108.738 180.586 109.12 182.125 109.457C183.075 109.664 184.031 109.942 184.994 110.007C186.069 110.085 187.195 110.137 188.224 109.884C190.673 109.276 192.481 107.702 194.021 105.753C194.558 105.073 194.754 104.491 194.296 103.526C192.979 103.338 191.59 103.144 190.202 102.95C189.769 102.891 189.331 102.891 188.898 102.82C186.704 102.464 184.523 102.043 182.328 101.745C179.911 101.422 177.475 101.201 175.045 100.936C174.881 100.917 174.724 100.891 174.56 100.865C172.424 100.509 170.296 100.094 168.147 99.8093C165.73 99.4856 163.294 99.2654 160.863 99C160.7 98.9806 160.536 98.9612 160.379 98.9353C158.191 98.5727 156.003 98.1582 153.809 97.8604C151.444 97.5367 149.06 97.323 146.689 97.064C146.525 97.0446 146.368 97.0188 146.204 96.9929C144.016 96.6303 141.828 96.2158 139.634 95.918C137.217 95.5942 134.78 95.3741 132.35 95.1086C132.187 95.0892 132.029 95.0569 131.866 95.031C129.619 94.6684 127.379 94.2605 125.125 93.9562C122.761 93.639 120.383 93.4187 118.005 93.1532C117.842 93.1338 117.684 93.095 117.521 93.0691C115.274 92.713 113.034 92.3116 110.78 92.0073C108.468 91.6965 106.143 91.4762 103.824 91.2172C103.66 91.1978 103.503 91.1461 103.346 91.1267C100.988 90.7641 98.6363 90.4015 96.2782 90.0389C95.1516 89.8641 94.0381 89.6634 92.9049 89.5339C92.0403 89.4303 91.169 89.3979 90.2978 89.3655C89.6494 89.3396 89.3153 89.6958 89.2433 90.5505ZM147.01 80.1C150.291 81.013 153.331 81.1813 156.376 81.1942C157.359 81.2007 158.23 80.864 159.121 80.3654C162.324 78.5719 165.573 76.8561 168.855 75.2245C171.403 73.9619 174.036 72.8612 176.924 71.5598C176.328 71.1583 175.949 70.8411 175.516 70.6274C175.09 70.4202 174.619 70.2647 174.147 70.1676C172.614 69.8503 171.082 69.4555 169.529 69.3001C166.169 68.9504 163.11 70.1935 160.149 71.469C155.735 73.3662 151.726 75.995 147.979 78.9993C147.671 79.2518 147.442 79.6079 147.01 80.1ZM172.176 65.6224C172.143 65.7843 172.117 65.9462 172.084 66.108C173.099 66.5548 174.108 67.0209 175.136 67.4417C177.337 68.3352 179.564 69.1705 181.759 70.0835C182.97 70.5885 183.036 71.7021 181.942 72.4403C181.719 72.5892 181.457 72.6799 181.221 72.8029C179.702 73.5993 178.163 74.3633 176.669 75.2115C175.601 75.8201 175.392 76.6036 175.922 77.4647C176.584 78.5266 176.97 78.6238 178.182 78.0151C182.184 75.995 186.186 73.9748 190.189 71.9482C190.916 71.5791 191.59 71.1518 191.885 70.0705C191.191 69.6302 190.536 69.0734 189.776 68.7626C186.193 67.3122 182.59 65.9137 178.988 64.528C176.486 63.5633 174.265 64.2433 172.176 65.6224Z" fill="#F3F3F3"/>
<path d="M275.355 74.9655C277.844 79.3813 280.215 83.5835 282.58 87.7857C284.872 91.8518 287.23 95.8791 289.418 100.004C290.466 101.978 291.246 104.109 292.032 106.206C292.922 108.615 293.721 111.056 294.488 113.51C295.267 116.016 295.955 118.547 296.695 121.066C297.239 122.918 297.914 124.731 298.339 126.609C298.903 129.101 300.101 131.465 299.957 134.119C299.885 135.46 299.407 136.632 298.667 137.693C297.789 138.95 296.532 138.937 295.634 137.674C294.704 136.373 293.833 135.032 292.935 133.705C289.084 128.001 285.226 122.303 281.394 116.586C279.704 114.06 277.87 111.613 276.874 108.706C276.291 106.996 275.715 105.274 275.158 103.558C274.536 101.635 273.92 99.7057 273.337 97.7698C272.597 95.3223 271.903 92.8618 271.176 90.4078C270.691 88.7697 270.206 87.1382 269.695 85.513C269.374 84.4964 268.955 83.5122 268.66 82.4956C268.326 81.3496 268.575 81.1165 269.59 80.4237C270.599 79.7309 271.51 78.8827 272.374 78.0151C273.134 77.2575 273.756 76.3705 274.464 75.5676C274.647 75.341 274.955 75.2245 275.355 74.9655ZM296.977 135.991C298.418 133.731 298.392 131.814 296.944 129.904C296.237 128.972 295.68 127.929 294.979 126.991C291.318 122.057 287.636 117.13 283.949 112.215C283.018 110.978 282.049 109.768 281.047 108.583C280.85 108.35 280.379 108.123 280.13 108.201C279.874 108.278 279.625 108.706 279.553 109.023C279.318 110.039 279.73 110.907 280.294 111.742C285.435 119.37 290.571 126.997 295.719 134.618C296.034 135.071 296.479 135.447 296.977 135.991Z" fill="#F3F3F3"/>
<path d="M213.206 99.777C200.708 97.3684 188.296 94.9791 175.883 92.5899C175.863 92.4928 175.844 92.3892 175.831 92.2921C177.599 91.5734 179.361 90.8417 181.13 90.1359C185.839 88.2517 190.555 86.3611 195.272 84.4964C199.339 82.8906 203.42 81.3108 207.494 79.7116C208.85 79.1741 210.193 78.6043 211.536 78.041C213.01 77.4194 213.278 77.4777 214.326 78.6885C216.409 81.0842 218.492 83.4798 220.641 85.9532C218.191 90.505 215.754 95.0374 213.206 99.777Z" fill="#F3F3F3"/>
<path d="M227.053 79.1612C229.077 74.7453 229.745 70.187 231.39 65.9654C231.501 65.9848 231.619 65.9978 231.73 66.0172C231.645 67.7266 231.573 69.4359 231.475 71.1452C231.435 71.7927 231.278 72.4274 231.265 73.0749C231.213 76.1504 230.617 79.1546 230.184 82.1848C230.106 82.7223 230.479 83.4151 230.833 83.8943C232.09 85.5713 233.433 87.1834 234.737 88.828C235.307 89.5402 235.863 90.2591 236.479 91.0425C235.628 92.1303 234.475 92.5123 233.25 92.6547C232.922 92.6936 232.464 92.3438 232.208 92.0525C231.455 91.2172 230.8 90.3043 230.06 89.4561C229.739 89.0935 229.307 88.8215 228.887 88.4719C228.075 90.3949 227.387 92.1302 226.615 93.8266C225.881 95.4388 224.754 96.6237 222.959 97.2129C221.505 97.6855 220.149 98.4561 218.531 98.8899C218.931 98.1842 219.304 97.4654 219.73 96.7726C221.807 93.3992 223.379 89.7928 224.741 86.0892C224.852 85.7913 225.055 85.5258 225.16 85.228C225.468 84.3798 225.475 83.6352 224.813 82.8388C222.927 80.5791 221.145 78.2417 219.324 75.9367C219.101 75.6518 218.905 75.3539 218.564 74.8812C219.691 74.3244 220.66 73.7741 221.695 73.3792C221.951 73.2821 222.501 73.6058 222.743 73.8842C223.831 75.1468 224.859 76.4677 225.907 77.7626C226.215 78.1382 226.523 78.5072 227.053 79.1612Z" fill="#F3F3F3"/>
<path d="M267.534 62.2942C270.56 62.5855 273.599 62.6179 276.625 62.9352C278.04 63.0841 278.558 63.7446 278.407 65.0978C278.361 65.5187 278.25 65.9524 278.066 66.328C276.075 70.4654 273.429 74.1625 270.278 77.51C269.99 77.8208 269.656 78.0992 269.309 78.3453C268.084 79.2194 267.37 79.0899 266.721 77.7626C265.556 75.3734 264.435 72.9582 263.335 70.5366C262.516 68.7495 261.763 66.9302 260.97 65.1302C260.171 63.3108 260.794 62.3265 262.791 62.3006C264.37 62.2812 265.949 62.2942 267.534 62.2942ZM264.828 70.1869C268.765 68.5035 272.558 66.8719 276.344 65.2532C275.97 64.2237 275.97 64.2043 275.178 64.1136C271.765 63.7187 268.352 63.3884 264.92 63.7704C264.18 63.8546 263.453 64.0101 262.51 64.172C262.804 66.3799 263.839 68.115 264.828 70.1869Z" fill="#F3F3F3"/>
</svg>
