<svg width="375" height="144" viewBox="0 0 375 144" fill="none" xmlns="http://www.w3.org/2000/svg">
<path d="M0 56.9242C0.536638 57.0081 0.782343 56.7433 0.905188 56.2526C1.90088 52.404 4.51941 50.0599 8.1401 48.7942C9.17459 48.4326 10.3707 48.4714 11.4957 48.452C16.0733 48.3745 20.6509 48.3422 25.2285 48.297C27.3944 48.2776 27.6078 48.0452 28.0862 45.9143C28.6358 43.4798 29.3276 41.0712 29.916 38.6432C30.4332 36.5187 30.8664 34.3814 31.403 32.2634C31.9332 30.1454 32.5668 28.0596 33.1099 25.948C33.4526 24.6049 33.6983 23.2359 33.9957 21.8863C35.5927 14.6799 39.3039 8.97149 45.6983 5.07768C48.7888 3.19212 52.0927 1.83614 55.5711 0.957937C60 -0.159194 64.5711 -0.198083 69.0517 0.324966C73.3384 0.822186 77.4052 2.30096 80.6638 5.35531C84.4267 8.8875 85.6616 13.2012 84.4849 18.2186C83.9483 20.5109 83.4892 22.8162 82.9267 25.1021C82.403 27.2266 81.7629 29.3253 81.2263 31.4498C80.6897 33.5742 80.2435 35.7245 79.7133 37.849C79.1832 39.9735 78.5754 42.0786 78.0388 44.2031C77.5022 46.3276 77.0237 48.4649 76.4935 50.5959C75.9634 52.7204 75.3944 54.832 74.8513 56.9565C74.3276 59.0293 73.8233 61.1085 73.2996 63.1813C72.7371 65.4091 72.1681 67.6306 71.6121 69.8584C71.0819 71.9828 70.5711 74.1137 70.0474 76.2447C69.7565 77.4393 69.4461 78.6275 69.1875 79.8285C68.9677 80.8682 68.7543 81.9207 68.6444 82.9797C68.5086 84.297 69.1035 85.2463 70.3319 85.7887C70.6681 85.9372 70.9979 86.1115 71.5345 86.3698C70.8685 89.0109 70.2091 91.6327 69.5496 94.2609C69.0129 94.319 68.6444 94.3965 68.2823 94.3965C65.8577 94.4029 63.4332 94.4546 61.0086 94.3642C58.5065 94.2738 56.1789 93.5764 54.181 91.9814C52.4677 90.6189 51.4785 88.9013 51.3298 86.6734C51.1423 83.8516 51.5884 81.1458 52.4806 78.4789C52.8685 77.323 53.0431 76.0961 53.3405 74.9015C53.6573 73.61 54 72.325 54.3427 71.0464C54.6142 70.0197 54.9181 68.9994 55.1767 67.9662C55.8362 65.3316 56.4763 62.697 57.1164 60.0624C57.1358 59.972 57.0776 59.8559 57.0129 59.5459C56.5733 59.4943 56.069 59.3845 55.5582 59.3845C51.3556 59.3716 47.153 59.3716 42.9504 59.378C41.6703 59.3845 41.3405 59.6686 41.0366 60.8503C40.3965 63.3881 39.7371 65.9192 39.1164 68.4635C38.3922 71.4209 37.7457 74.3978 37.0021 77.3553C36.2586 80.3063 35.4116 83.2381 34.6616 86.1891C34.1185 88.3136 33.6724 90.4574 33.1487 92.5884C33.0129 93.1566 32.7608 93.6925 32.5345 94.3124C27.0194 94.3124 21.5431 94.3124 15.9116 94.3124C16.1573 93.1372 16.3448 92.0071 16.6293 90.9029C16.9332 89.7212 17.3664 88.5718 17.6573 87.3837C18.181 85.2656 18.6013 83.1219 19.1315 81.0038C19.6617 78.8923 20.3082 76.8065 20.8448 74.6949C21.3815 72.5769 21.8211 70.4394 22.3384 68.3214C22.6422 67.0816 23.1078 65.8741 23.3147 64.6213C23.5862 62.9618 24.5302 61.4121 24.2004 59.5394C23.7608 59.4813 23.347 59.378 22.9332 59.378C15.6077 59.3716 8.27584 59.3716 0.950412 59.378C0.633602 59.378 0.31681 59.4684 0 59.5136C0 58.6483 0 57.783 0 56.9242ZM44.1854 48.452C45.0582 48.5036 45.5819 48.5683 46.1121 48.5683C50.0948 48.5748 54.0776 48.5748 58.0603 48.5683C59.819 48.5683 60.1552 48.2584 60.4461 46.4826C60.4978 46.1662 60.5043 45.8367 60.5884 45.5268C61.3707 42.6597 62.2112 39.8056 62.9483 36.9256C63.6983 33.994 64.3513 31.0299 65.0625 28.0853C65.3147 27.0521 65.6121 26.032 65.8965 25.0053C66.2327 23.7719 66.5884 22.5513 66.9116 21.318C67.2737 19.9296 67.6229 18.5349 67.9461 17.1401C68.444 14.9962 68.4569 12.904 67.1767 10.9797C65.2888 8.14488 62.7026 7.98991 59.7543 8.73251C56.6896 9.5074 54.4073 11.5932 53.1595 14.57C52.5646 15.9842 52.1703 17.4888 51.7436 18.9676C51.1552 21.021 50.6185 23.0874 50.0754 25.1473C49.4806 27.4139 48.8922 29.6868 48.3103 31.9598C47.806 33.9228 47.3211 35.8924 46.8168 37.8619C46.2543 40.0833 45.6789 42.3047 45.1164 44.5325C44.8061 45.7594 44.528 46.9926 44.1854 48.452Z" fill="#F3F3F3"/>
<path d="M375 30.4488C374.728 31.2431 374.418 32.0244 374.198 32.8315C373.655 34.8979 373.164 36.9773 372.627 39.0436C371.935 41.7235 371.218 44.3903 370.507 47.0766C367.545 47.0766 364.765 47.0766 361.785 47.0766C361.785 46.4373 361.687 45.8562 361.804 45.3137C362.069 44.0675 362.457 42.847 362.741 41.6007C362.929 40.7871 363.026 39.9476 363.188 38.9855C362.683 38.9855 362.341 38.8886 362.095 38.9984C358.106 40.8 354.66 43.3248 351.828 46.6956C349.649 49.2914 347.722 52.0422 346.5 55.2064C345.808 56.9886 345.336 58.8613 344.819 60.7081C344.231 62.8132 343.688 64.9377 343.157 67.0558C342.621 69.1802 342.123 71.3113 341.599 73.4357C341.088 75.5086 340.578 77.5813 340.054 79.6541C339.511 81.7786 338.942 83.8903 338.405 86.0147C337.713 88.7527 337.041 91.497 336.349 94.293C330.769 94.293 325.3 94.293 319.649 94.293C319.694 93.6344 319.649 92.9887 319.804 92.3946C320.334 90.3347 320.968 88.307 321.491 86.2471C322.028 84.1356 322.468 81.9918 322.985 79.8738C323.289 78.6339 323.664 77.42 324 76.1866C324.278 75.1599 324.562 74.1331 324.808 73.0999C325.519 70.0973 326.172 67.0815 326.922 64.0918C327.666 61.1536 328.532 58.2544 329.282 55.3162C329.825 53.2047 330.233 51.0543 330.763 48.9427C331.293 46.8311 331.92 44.7389 332.47 42.6338C332.793 41.394 333.013 40.1349 333.323 38.8951C333.647 37.6036 334.028 36.3314 334.358 35.0464C334.662 33.8582 334.927 32.6636 335.237 31.4819C335.425 30.778 335.664 30.0871 335.877 29.4026C341.483 29.4026 346.901 29.4026 352.571 29.4026C352.228 31.0557 351.905 32.5861 351.53 34.3813C352.028 34.265 352.442 34.2715 352.739 34.0842C354.899 32.7798 357.11 31.5917 359.554 30.9202C361.041 30.5069 362.547 30.0613 364.08 29.9063C367.125 29.6028 370.19 29.4802 373.248 29.3188C373.83 29.2865 374.418 29.4221 375 29.4802C375 29.8031 375 30.1259 375 30.4488Z" fill="#F3F3F3"/>
<path d="M153.556 143.453C153.388 143.266 153.259 143.001 153.045 142.898C149.741 141.277 149.502 137.048 152.644 135.033C153.078 134.755 153.601 134.561 154.106 134.484C154.791 134.381 155.502 134.4 156.2 134.4C177.233 134.394 198.259 134.4 219.291 134.4C219.776 134.4 220.261 134.394 220.746 134.419C222.931 134.523 224.399 135.814 224.981 138.107C225.375 139.669 224.373 141.807 222.834 142.762C222.55 142.937 222.336 143.214 222.09 143.447C199.248 143.453 176.399 143.453 153.556 143.453Z" fill="#F3F3F3"/>
<path d="M168.886 29.4026C168.317 31.624 167.8 33.6258 167.295 35.6406C166.778 37.7134 166.28 39.7926 165.756 41.8654C165.2 44.0932 164.625 46.3146 164.062 48.5424C163.545 50.6152 163.041 52.6945 162.524 54.7673C161.968 56.9951 161.392 59.2165 160.836 61.4443C160.319 63.5171 159.815 65.5963 159.291 67.6692C158.735 69.897 158.166 72.1248 157.603 74.3462C157.119 76.264 156.543 78.1624 156.168 80.1061C155.722 82.4114 156.802 85.0332 159.162 85.6466C159.563 85.7499 159.918 86.0211 160.416 86.2794C159.756 88.8947 159.097 91.5164 158.379 94.3706C156.853 94.3706 155.308 94.4028 153.769 94.3641C150.401 94.2802 147.22 93.4794 144.297 91.7747C141.944 90.4057 140.295 88.3975 139.474 85.8339C139.138 84.7878 139.241 83.5932 139.203 82.4696C139.119 80.0868 139.675 77.8137 140.425 75.5665C140.761 74.5592 140.955 73.5068 141.22 72.4736C141.847 70.0004 142.5 67.5272 143.101 65.0476C143.618 62.9231 144.045 60.7791 144.575 58.6611C145.112 56.5495 145.765 54.4638 146.302 52.3522C146.838 50.2342 147.259 48.0904 147.795 45.9724C148.325 43.8608 148.914 41.7557 149.522 39.6635C149.942 38.2041 149.593 37.681 148.047 37.6681C145.894 37.6487 143.735 37.6552 141.582 37.6681C140.121 37.6746 139.668 38.0297 139.338 39.4116C138.414 43.2537 137.528 47.1089 136.578 50.951C135.828 53.9602 135.006 56.9434 134.205 59.9397C133.552 62.3612 132.95 64.8021 132.194 67.1913C130.953 71.098 128.877 74.5787 126.356 77.788C122.347 82.8958 117.472 86.9833 111.802 90.1539C109.086 91.6714 106.216 92.7885 103.241 93.5957C101.502 94.0671 99.653 94.3383 97.8492 94.3706C91.7651 94.4739 85.6746 94.4351 79.5841 94.4415C79.1638 94.4415 78.75 94.364 78.1358 94.2995C78.6659 92.2331 79.1702 90.2959 79.6681 88.3458C79.9332 87.3126 80.1853 86.2794 80.444 85.2462C81.0646 82.773 81.7177 80.3063 82.3125 77.8202C82.8362 75.644 83.2629 73.4486 83.7996 71.2789C84.3297 69.1673 84.9828 67.0816 85.5129 64.97C86.0496 62.852 86.4827 60.7147 86.9935 58.5902C87.2909 57.3504 87.6659 56.1298 87.9957 54.8964C88.2737 53.8697 88.5646 52.8431 88.8039 51.8099C89.5151 48.8072 90.1746 45.7915 90.9052 42.7888C91.4353 40.6191 92.0625 38.4689 92.5991 36.3057C92.9095 35.0659 93.1228 33.8002 93.3879 32.5474C93.6078 31.5143 93.8405 30.481 94.0798 29.3961C99.8728 29.3961 105.504 29.3961 111.401 29.3961C109.83 35.7825 108.323 42.0269 106.752 48.2583C105.168 54.522 103.494 60.7662 101.903 67.0299C100.319 73.2871 98.7996 79.5572 97.1832 86.0857C98.3599 86.0276 99.4073 86.1631 100.351 85.9048C105.504 84.51 109.603 81.656 112.319 76.9679C113.211 75.431 113.767 73.7973 114.155 72.0732C114.634 69.9487 115.267 67.8629 115.83 65.7513C116.101 64.7246 116.366 63.6914 116.625 62.6582C117.265 60.1334 117.925 57.6085 118.532 55.0772C119.043 52.9527 119.463 50.809 119.994 48.6974C120.524 46.5858 121.183 44.5065 121.72 42.395C122.256 40.2769 122.696 38.1395 123.2 36.015C123.64 34.1488 124.086 32.2891 124.59 30.4359C124.836 29.5383 125.263 29.3123 126.453 29.3123C131.353 29.2994 136.261 29.2929 141.162 29.2929C149.78 29.2929 158.405 29.2994 167.024 29.3123C167.599 29.3058 168.162 29.3639 168.886 29.4026Z" fill="#F3F3F3"/>
<path d="M223.875 86.3183C223.203 88.9529 222.55 91.5294 221.858 94.2351C221.476 94.2867 221.069 94.3771 220.662 94.3836C218.722 94.3965 216.782 94.3965 214.843 94.3771C210.42 94.3384 206.522 93.0985 203.696 89.3403C202.235 90.2056 200.813 91.1096 199.338 91.9168C196.338 93.5634 193.138 94.474 189.685 94.39C188.231 94.3577 186.776 94.4094 185.321 94.3707C180.582 94.2415 176.269 92.8209 172.668 89.7084C169.978 87.3902 168.491 84.4068 168.407 80.7649C168.356 78.6339 168.892 76.6451 169.474 74.6433C169.784 73.5713 170.056 72.48 170.308 71.3952C171.013 68.3925 171.659 65.3704 172.409 62.3742C173.159 59.3844 174.032 56.4204 174.789 53.4306C175.325 51.3126 175.668 49.143 176.282 47.0508C177.369 43.3572 179.34 40.1673 182.224 37.5779C185.476 34.6526 189.162 32.4894 193.325 31.0752C196.881 29.8677 200.528 29.3511 204.239 29.3253C213.071 29.2607 221.903 29.3059 230.741 29.3059C231.265 29.3059 231.789 29.351 232.513 29.3833C232.403 30.255 232.384 30.9977 232.216 31.708C231.401 35.0788 230.554 38.4495 229.694 41.8138C228.925 44.8165 228.078 47.7934 227.328 50.8026C226.578 53.8053 225.918 56.8403 225.175 59.8494C224.651 61.9739 224.024 64.0724 223.487 66.1969C222.95 68.3214 222.491 70.4654 221.968 72.5899C221.438 74.7143 220.856 76.8258 220.312 78.9438C220.06 79.9318 219.776 80.9134 219.627 81.9143C219.414 83.3349 220.371 84.8912 221.748 85.5047C222.381 85.7823 223.034 86.0019 223.875 86.3183ZM213.44 38.3786C212.994 37.5585 212.308 37.6746 211.675 37.6682C209.412 37.6617 207.155 37.6424 204.892 37.6682C203.017 37.6876 201.162 37.5908 199.287 38.0815C197.677 38.5013 196.474 39.3149 195.575 40.6257C194.502 42.1884 193.991 43.9965 193.558 45.8175C193.047 47.9484 192.524 50.0664 191.993 52.1909C191.437 54.4187 190.875 56.6401 190.319 58.8679C189.802 60.9407 189.31 63.0199 188.78 65.0863C188.243 67.2043 187.668 69.3159 187.125 71.4404C186.53 73.7651 185.903 76.0833 185.386 78.4274C184.5 82.4374 185.903 85.666 190.713 86.047C192.918 86.2213 194.987 85.8016 196.92 84.7555C199.907 83.1347 202.332 80.9587 203.438 77.6331C203.955 76.0769 204.317 74.4689 204.75 72.8804C205.552 69.9035 206.392 66.9395 207.142 63.9498C207.892 60.96 208.545 57.9444 209.25 54.9417C209.483 53.9602 209.748 52.9851 210.006 52.0036C210.569 49.8985 211.17 47.8063 211.7 45.6947C212.308 43.2861 212.858 40.8517 213.44 38.3786Z" fill="#F3F3F3"/>
<path d="M284.612 94.3641C283.371 94.3641 282.129 94.4481 280.894 94.3512C276.142 93.9702 271.797 92.4979 268.332 89.1077C265.345 86.1761 264.278 82.4825 264.905 78.4015C265.235 76.2576 266.024 74.1912 266.554 72.0732C267.084 69.9552 267.511 67.8177 268.047 65.6997C268.584 63.5881 269.211 61.5025 269.767 59.3909C270.078 58.2092 270.31 57.0016 270.595 55.807C270.879 54.6189 271.164 53.4242 271.474 52.2425C271.784 51.0608 272.224 49.905 272.457 48.7104C273.53 43.2022 276.575 39.0048 280.998 35.6857C283.933 33.4837 287.121 31.7015 290.644 30.7458C295.487 29.4285 300.44 28.8603 305.483 29.6352C307.61 29.9645 309.711 30.2938 311.69 31.172C315.433 32.8315 318.53 35.2208 319.959 39.1857C320.625 41.0261 320.974 42.9825 320.631 45.036C319.966 49.0589 318.84 52.9528 317.825 56.8854C317.062 59.8299 316.429 62.8133 315.692 65.7643C315.175 67.8371 314.567 69.8842 314.017 71.9505C313.565 73.6488 313.131 75.36 312.685 77.0647C311.709 80.81 309.543 83.8128 306.724 86.357C303.698 89.0885 300.297 91.2 296.412 92.5431C291.95 94.0735 289.416 94.5062 284.612 94.3641ZM303.595 44.3645C303.595 43.9319 303.608 43.5057 303.595 43.0731C303.407 38.54 299.787 36.9901 295.823 38.6691C293.147 39.8056 291.627 42.098 290.567 44.6616C289.881 46.3276 289.455 48.1034 288.989 49.8533C288.381 52.1263 287.851 54.4121 287.289 56.6916C286.771 58.7644 286.254 60.8373 285.731 62.9037C285.194 65.0282 284.625 67.1461 284.108 69.2706C283.591 71.3951 283.216 73.5649 282.582 75.6571C281.974 77.6589 281.812 79.6541 282.116 81.6946C282.549 84.6328 285.33 87.0738 288.905 85.6919C292.009 84.4908 293.948 82.1726 295.131 79.2086C295.778 77.5943 296.108 75.8508 296.573 74.1589C297.168 72.0086 297.789 69.8647 298.332 67.695C298.869 65.5254 299.295 63.3299 299.812 61.1538C300.407 58.6741 301.054 56.201 301.674 53.7278C301.933 52.6946 302.127 51.642 302.444 50.6282C303.065 48.5876 303.659 46.5407 303.595 44.3645Z" fill="#F3F3F3"/>
<path d="M254.282 94.3254C251.127 94.3254 248.192 94.5708 245.321 94.2544C242.353 93.9315 239.502 92.9693 237.388 90.5736C235.972 88.9657 234.989 87.19 234.963 85.0074C234.944 83.3414 234.931 81.6689 235.067 80.0158C235.151 78.9633 235.474 77.93 235.752 76.8968C236.302 74.8434 236.929 72.8158 237.453 70.7559C237.989 68.6443 238.422 66.5005 238.94 64.3825C239.244 63.1427 239.631 61.9285 239.968 60.7016C240.233 59.7266 240.504 58.7516 240.731 57.7701C241.228 55.6456 241.668 53.5081 242.198 51.3901C242.715 49.3302 243.336 47.2961 243.879 45.2362C244.384 43.3313 244.888 41.4264 245.308 39.5021C245.625 38.0556 245.276 37.681 243.756 37.6617C242.25 37.6423 240.744 37.6681 239.231 37.6488C238.707 37.6423 238.19 37.5713 237.485 37.5196C237.621 36.6285 237.685 35.8925 237.853 35.1821C238.17 33.839 238.61 32.5216 238.881 31.172C239.205 29.5641 239.431 29.3058 241.093 29.2994C243.291 29.2929 245.489 29.2994 247.817 29.2994C248.321 27.2201 248.787 25.2635 249.285 23.3134C249.821 21.2018 250.403 19.0966 250.953 16.9915C251.063 16.5783 251.121 16.1521 251.192 15.7324C251.379 14.6346 251.631 14.4087 252.776 14.3506C252.886 14.3441 252.989 14.3506 253.099 14.3506C257.728 14.3506 262.364 14.3441 266.993 14.357C267.453 14.357 267.912 14.4345 268.494 14.4926C267.233 19.4067 266.024 24.1463 264.763 29.0668C267.058 29.648 269.379 29.0282 271.817 29.4802C271.778 30.1389 271.823 30.7716 271.687 31.3657C271.293 33.0834 270.834 34.7881 270.388 36.4929C270.194 37.2484 269.761 37.694 268.901 37.6811C267.394 37.6552 265.888 37.6682 264.375 37.6811C262.953 37.694 262.565 37.9523 262.222 39.3083C261.698 41.3812 261.265 43.4733 260.741 45.5461C260.211 47.6706 259.597 49.7693 259.06 51.8938C258.53 53.9666 258.058 56.0459 257.541 58.1251C257.011 60.2496 256.461 62.3677 255.925 64.4922C255.388 66.6167 254.851 68.7411 254.321 70.8656C253.791 72.9901 253.261 75.1146 252.731 77.2391C252.459 78.3304 252.11 79.4024 251.909 80.5066C251.586 82.2436 252.543 85.1301 254.864 85.5499C255.317 85.6338 255.731 85.9436 256.345 86.2407C255.666 88.914 254.981 91.5745 254.282 94.3254Z" fill="#F3F3F3"/>
<path d="M187.642 124.843C171.052 124.843 154.468 124.843 137.877 124.843C137.179 124.843 136.474 124.849 135.776 124.804C132.841 124.623 130.998 121.698 132.078 118.96C132.912 116.849 134.321 115.867 136.591 115.809C136.804 115.803 137.024 115.809 137.237 115.809C170.955 115.809 204.666 115.816 238.384 115.796C239.438 115.796 240.407 115.971 241.338 116.435C243.019 117.275 243.75 118.78 243.763 120.504C243.776 122.344 242.722 123.719 241.106 124.604C240.841 124.753 240.478 124.753 240.162 124.772C239.302 124.811 238.442 124.843 237.582 124.843C220.927 124.843 204.285 124.843 187.642 124.843Z" fill="#F3F3F3"/>
<path d="M156.731 9.99824C156.763 6.02049 159.31 2.33962 163.08 0.80922C165.472 -0.15939 167.89 -0.294977 170.244 0.828611C173.179 2.22987 174.795 6.0656 173.845 9.26201C172.849 12.6134 170.838 14.9832 167.767 16.4813C164.114 18.2571 160.151 17.5017 157.914 14.357C156.912 12.9686 156.711 12.3165 156.731 9.99824Z" fill="#F3F3F3"/>
</svg>
